<svg width="14" height="14" viewBox="0 0 14 14" fill="none" xmlns="http://www.w3.org/2000/svg">
<rect x="1" y="1" width="12" height="12" rx="6" fill="#6CE9A6"/>
<rect x="1" y="1" width="12" height="12" rx="6" stroke="#12B76A" stroke-width="0.5"/>
<g clip-path="url(#clip0_83_22144)">
<path d="M6.05189 3.30939C5.81722 3.52187 5.52544 3.65029 5.21809 3.67634C4.50087 3.73716 3.93133 4.34229 3.87409 5.10434C3.84957 5.4309 3.72871 5.74092 3.52872 5.99025C3.06204 6.57211 3.06204 7.42789 3.52872 8.00975C3.72871 8.25908 3.84957 8.5691 3.87409 8.89566C3.93133 9.65771 4.50087 10.2628 5.21809 10.3237C5.52544 10.3497 5.81722 10.4781 6.05189 10.6906C6.59952 11.1865 7.40496 11.1865 7.95259 10.6906C8.18726 10.4781 8.47904 10.3497 8.78639 10.3237C9.50361 10.2628 10.0732 9.65771 10.1304 8.89566C10.1549 8.5691 10.2758 8.25908 10.4758 8.00975C10.9424 7.42789 10.9424 6.57211 10.4758 5.99025C10.2758 5.74092 10.1549 5.4309 10.1304 5.10434C10.0732 4.34229 9.50361 3.73716 8.78639 3.67634C8.47904 3.65029 8.18726 3.52187 7.95259 3.30939C7.40496 2.81354 6.59952 2.81354 6.05189 3.30939Z" fill="white"/>
<path d="M5.85518 7L6.61989 7.8125L8.34048 5.98438M5.21809 3.67634C5.52544 3.65029 5.81722 3.52187 6.05189 3.30939C6.59952 2.81354 7.40496 2.81354 7.95259 3.30939C8.18726 3.52187 8.47904 3.65029 8.78639 3.67634C9.50361 3.73716 10.0732 4.34229 10.1304 5.10434C10.1549 5.4309 10.2758 5.74092 10.4758 5.99025C10.9424 6.57211 10.9424 7.42789 10.4758 8.00975C10.2758 8.25908 10.1549 8.5691 10.1304 8.89566C10.0732 9.65771 9.50361 10.2628 8.78639 10.3237C8.47904 10.3497 8.18726 10.4781 7.95259 10.6906C7.40496 11.1865 6.59952 11.1865 6.05189 10.6906C5.81722 10.4781 5.52544 10.3497 5.21809 10.3237C4.50087 10.2628 3.93133 9.65771 3.87409 8.89566C3.84957 8.5691 3.72871 8.25908 3.52872 8.00975C3.06204 7.42789 3.06204 6.57211 3.52872 5.99025C3.72871 5.74092 3.84957 5.4309 3.87409 5.10434C3.93133 4.34229 4.50087 3.73716 5.21809 3.67634Z" stroke="#12B76A" stroke-width="0.5" stroke-linecap="round" stroke-linejoin="round"/>
</g>
<defs>
<clipPath id="clip0_83_22144">
<rect width="9.17647" height="9.75" fill="white" transform="translate(2.41406 2.125)"/>
</clipPath>
</defs>
</svg>
